<mxfile host="app.diagrams.net" modified="2024-03-25T10:20:19.484Z" agent="Mozilla/5.0 (Windows NT 10.0; Win64; x64) AppleWebKit/537.36 (KHTML, like Gecko) Chrome/120.0.0.0 YaBrowser/24.1.0.0 Safari/537.36" etag="F6_bCQPzt32llwmhPyRB" version="24.1.0" type="github">
  <diagram name="Страница — 1" id="ZogXeYmooh8t7bpbcheT">
    <mxGraphModel dx="1386" dy="791" grid="1" gridSize="10" guides="1" tooltips="1" connect="1" arrows="1" fold="1" page="1" pageScale="1" pageWidth="827" pageHeight="1169" math="0" shadow="0">
      <root>
        <mxCell id="0" />
        <mxCell id="1" parent="0" />
        <mxCell id="hQ6ng13r5tFxjx2WH6l5-1" value="" style="swimlane;startSize=0;" vertex="1" parent="1">
          <mxGeometry x="320" y="70" width="200" height="200" as="geometry" />
        </mxCell>
        <mxCell id="hQ6ng13r5tFxjx2WH6l5-8" value="dk" style="text;html=1;align=center;verticalAlign=middle;resizable=0;points=[];autosize=1;strokeColor=none;fillColor=none;" vertex="1" parent="hQ6ng13r5tFxjx2WH6l5-1">
          <mxGeometry x="74" y="85" width="40" height="30" as="geometry" />
        </mxCell>
        <mxCell id="hQ6ng13r5tFxjx2WH6l5-3" value="" style="swimlane;startSize=0;" vertex="1" parent="1">
          <mxGeometry x="170" y="330" width="180" height="100" as="geometry" />
        </mxCell>
        <mxCell id="hQ6ng13r5tFxjx2WH6l5-4" value="значения i" style="text;html=1;align=center;verticalAlign=middle;resizable=0;points=[];autosize=1;strokeColor=none;fillColor=none;" vertex="1" parent="hQ6ng13r5tFxjx2WH6l5-3">
          <mxGeometry x="50" y="70" width="80" height="30" as="geometry" />
        </mxCell>
        <mxCell id="hQ6ng13r5tFxjx2WH6l5-11" value="формула" style="text;html=1;align=center;verticalAlign=middle;resizable=0;points=[];autosize=1;strokeColor=none;fillColor=none;" vertex="1" parent="hQ6ng13r5tFxjx2WH6l5-3">
          <mxGeometry x="110" y="70" width="70" height="30" as="geometry" />
        </mxCell>
        <mxCell id="hQ6ng13r5tFxjx2WH6l5-6" value="" style="swimlane;startSize=0;" vertex="1" parent="1">
          <mxGeometry x="450" y="330" width="200" height="100" as="geometry" />
        </mxCell>
        <mxCell id="hQ6ng13r5tFxjx2WH6l5-7" value="значение j" style="text;html=1;align=center;verticalAlign=middle;resizable=0;points=[];autosize=1;strokeColor=none;fillColor=none;" vertex="1" parent="hQ6ng13r5tFxjx2WH6l5-6">
          <mxGeometry x="40" y="70" width="80" height="30" as="geometry" />
        </mxCell>
        <mxCell id="hQ6ng13r5tFxjx2WH6l5-10" value="формула" style="text;html=1;align=center;verticalAlign=middle;resizable=0;points=[];autosize=1;strokeColor=none;fillColor=none;" vertex="1" parent="hQ6ng13r5tFxjx2WH6l5-6">
          <mxGeometry x="110" y="70" width="70" height="30" as="geometry" />
        </mxCell>
        <mxCell id="hQ6ng13r5tFxjx2WH6l5-9" value="ввод данных" style="swimlane;startSize=0;" vertex="1" parent="1">
          <mxGeometry x="314" y="530" width="200" height="30" as="geometry" />
        </mxCell>
      </root>
    </mxGraphModel>
  </diagram>
</mxfile>
